<svg width="521" height="152" viewBox="0 0 521 152" fill="none" xmlns="http://www.w3.org/2000/svg">
<path d="M12.5192 46.1285C11.1279 40.936 14.2093 35.5988 19.4018 34.2075L102.138 12.0384L91.1256 31.1121L34.7147 46.2273C31.5992 47.0621 29.7504 50.2644 30.5852 53.3799L44.9447 106.97L34.1844 126.984L12.5192 46.1285Z" fill="#00B2FF"/>
<path d="M147.645 106.659C149.036 111.852 145.955 117.189 140.762 118.58L58.0265 140.749L69.0386 121.676L125.45 106.56C128.565 105.726 130.414 102.523 129.579 99.4078L115.22 45.8175L125.98 25.8036L147.645 106.659Z" fill="#00B2FF"/>
<path d="M212.916 45.8547V103.41H229.933C238.641 103.41 244.713 99.1225 248.149 90.547C250.026 85.8404 250.965 80.2365 250.965 73.735C250.965 64.7607 249.547 57.8803 246.71 53.094C243.914 48.2678 238.322 45.8547 229.933 45.8547H212.916ZM233.049 30.5384C238.521 30.6182 243.075 31.2564 246.71 32.453C252.902 34.4872 257.915 38.2165 261.75 43.641C264.826 48.0285 266.923 52.7749 268.042 57.8803C269.16 62.9857 269.72 67.8518 269.72 72.4786C269.72 84.2051 267.363 94.1367 262.649 102.273C256.258 113.242 246.391 118.726 233.049 118.726H195V30.5384H233.049Z" fill="#545454"/>
<path d="M304.768 45.735H287.451V30H304.768V45.735ZM287.451 53.5128H304.768V118.726H287.451V53.5128Z" fill="#545454"/>
<path d="M366.54 53.5128H384.875L361.327 118.726H343.291L319.863 53.5128H339.037L352.638 101.615L366.54 53.5128Z" fill="#545454"/>
<path d="M392.78 66.2564V54.1111H401.887V35.9231H418.785V54.1111H429.39V66.2564H418.785V100.718C418.785 103.39 419.124 105.066 419.803 105.744C420.482 106.382 422.56 106.701 426.035 106.701C426.554 106.701 427.094 106.701 427.653 106.701C428.252 106.661 428.831 106.621 429.39 106.581V119.325L421.301 119.624C413.232 119.903 407.72 118.507 404.764 115.436C402.846 113.481 401.887 110.47 401.887 106.402V66.2564H392.78Z" fill="#545454"/>
<path d="M474.565 106.701C479.558 106.701 483.393 104.926 486.069 101.376C488.746 97.8262 490.084 92.7806 490.084 86.2393C490.084 79.698 488.746 74.6724 486.069 71.1624C483.393 67.6125 479.558 65.8376 474.565 65.8376C469.572 65.8376 465.717 67.6125 463 71.1624C460.324 74.6724 458.986 79.698 458.986 86.2393C458.986 92.7806 460.324 97.8262 463 101.376C465.717 104.926 469.572 106.701 474.565 106.701ZM508 86.2393C508 95.812 505.244 104.009 499.731 110.829C494.219 117.61 485.85 121 474.625 121C463.4 121 455.031 117.61 449.519 110.829C444.006 104.009 441.25 95.812 441.25 86.2393C441.25 76.8262 444.006 68.6695 449.519 61.7692C455.031 54.8689 463.4 51.4188 474.625 51.4188C485.85 51.4188 494.219 54.8689 499.731 61.7692C505.244 68.6695 508 76.8262 508 86.2393Z" fill="#545454"/>
</svg>
